<?xml version="1.0" encoding="iso-8859-1"?>
<!DOCTYPE svg PUBLIC "-//W3C//DTD SVG 1.1//EN" "http://www.w3.org/Graphics/SVG/1.1/DTD/svg11.dtd">
<svg
        version="1.1"
        xmlns="http://www.w3.org/2000/svg"
>
  <g>
    <path stroke="pink" stroke-width="4"  
        fill="pink"
        fill-opacity="0.5" 
 d="M 0 0 L 0 0 L 0.5 0 L 1 0 L 1.5 0 L 2 0 L 2.5 0 L 3 0 L 3.5 0 L 4 0 L 4.5 0 L 5 0 L 5.5 0 L 6 0 L 6.5 0 L 7 0 L 7.5 0 L 8 0 L 8.5 0 L 9 0 L 9.5 0 L 10 0 L 10.5 0 L 11 0 L 11.5 0 L 12 0 L 12.5 0 L 13 0 L 13.5 0 L 14 0 L 14.5 0 L 15 0 L 15.5 0 L 16 0 L 16.5 0 L 17 0 L 17.5 0 L 18 0 L 18.5 0 L 19 0 L 19.5 0 L 20 0 L 20.5 0 L 21 0 L 21.5 0 L 22 0 L 22.5 0 L 23 0 L 23.5 0 L 24 0 L 24.5 0 L 25 0 L 25.5 0 L 26 0 L 26.5 0 L 27 0 L 27.5 0 L 28 0 L 28.5 0 L 29 0 L 29.5 0 L 30 0 L 30.5 0 L 31 0 L 31.5 0 L 32 0 L 32.5 0 L 33 0 L 33.5 0 L 34 0 L 34.5 0 L 35 0 L 35.5 0 L 36 0 L 36.5 0 L 37 0 L 37.5 0 L 38 0 L 38.5 0 L 39 0 L 39.5 0 L 40 0 L 40.5 0 L 41 0 L 41.5 0 L 42 0 L 42.5 0 L 43 0 L 43.5 0 L 44 0 L 44.5 0 L 45 0 L 45.5 0 L 46 0 L 46.5 0 L 47 0 L 47.5 0 L 48 0 L 48.5 0 L 49 0 L 49.5 0 L 50 0 L 50.5 0 L 51 0 L 51.5 0 L 52 0 L 52.5 0 L 53 0 L 53.5 0 L 54 0 L 54.5 0 L 55 0 L 55.5 0 L 56 0 L 56.5 0 L 57 0 L 57.5 0 L 58 0 L 58.5 0 L 59 0 L 59.5 0 L 60 0 L 60.5 0 L 61 0 L 61.5 0 L 62 0 L 62.5 0 L 63 0 L 63.5 0 L 64 0 L 64.5 0 L 65 0 L 65.5 0 L 66 0 L 66.5 0 L 67 0 L 67.5 0 L 68 0 L 68.5 0 L 69 0 L 69.5 0 L 70 0 L 70.5 0 L 71 0 L 71.5 0 L 72 0 L 72.5 0 L 73 0 L 73.5 0 L 74 0 L 74.5 0 L 75 0 L 75.5 0 L 76 0 L 76.5 0 L 77 0 L 77.5 0 L 78 0 L 78.5 0 L 79 0 L 79.5 0 L 80 0 L 80.5 0 L 81 0 L 81.5 0 L 82 0 L 82.5 0 L 83 0 L 83.5 0 L 84 0 L 84.5 0 L 85 0 L 85.5 0 L 86 0 L 86.5 0 L 87 0 L 87.5 0 L 88 0 L 88.5 0 L 89 0 L 89.5 0 L 90 0 L 90.5 0 L 91 0 L 91.5 0 L 92 0 L 92.5 0 L 93 0 L 93.5 0 L 94 0 L 94.5 0 L 95 0 L 95.5 0 L 96 0 L 96.5 0 L 97 0 L 97.5 0 L 98 0 L 98.5 0 L 99 0 L 99.5 0 L 100 0 L 100.5 0 L 101 0 L 101.5 0 L 102 0 L 102.5 0 L 103 0 L 103.5 0 L 104 0 L 104.5 0 L 105 0 L 105.5 0 L 106 0 L 106.5 0 L 107 0 L 107.5 0 L 108 0 L 108.5 0 L 109 0 L 109.5 0 L 110 0 L 110.5 0 L 111 0 L 111.5 0 L 112 0 L 112.5 0 L 113 0 L 113.5 0 L 114 0 L 114.5 0 L 115 0 L 115.5 0 L 116 0 L 116.5 0 L 117 0 L 117.5 0 L 118 0 L 118.5 0 L 119 0 L 119.5 0 L 120 0 L 120.5 0 L 121 0 L 121.5 0 L 122 0 L 122.5 0 L 123 0 L 123.5 0 L 124 0 L 124.5 0 L 125 0 L 125.5 0 L 126 0 L 126.5 0 L 127 0 L 127.5 0 L 128 0 L 128.5 0 L 129 0 L 129.5 0 L 130 0 L 130.5 0 L 131 0 L 131.5 0 L 132 0 L 132.5 0 L 133 0 L 133.5 0 L 134 0 L 134.5 0 L 135 0 L 135.5 0 L 136 0 L 136.5 0 L 137 0 L 137.5 0 L 138 0 L 138.5 0 L 139 0 L 139.5 0 L 140 0 L 140.5 0 L 141 0 L 141.5 0 L 142 0 L 142.5 0 L 143 0 L 143.5 0 L 144 0 L 144.5 0 L 145 0 L 145.5 0 L 146 0 L 146.5 0 L 147 0 L 147.5 0 L 148 0 L 148.5 0 L 149 0 L 149.5 0 L 150 0 L 150.5 0 L 151 0 L 151.5 0 L 152 0 L 152.5 0 L 153 0 L 153.5 0 L 154 0 L 154.5 0 L 155 0 L 155.5 0 L 156 0 L 156.5 0 L 157 0 L 157.5 0 L 158 0 L 158.5 0 L 159 0 L 159.5 0 L 160 0 L 160.5 0 L 161 0 L 161.5 0 L 162 0 L 162.5 0 L 163 0 L 163.5 0 L 164 0 L 164.5 0 L 165 0 L 165.5 0 L 166 0 L 166.5 0 L 167 0 L 167.5 0 L 168 0 L 168.5 0 L 169 0 L 169.5 0 L 170 0 L 170.5 0 L 171 0 L 171.5 0 L 172 0 L 172.5 0 L 173 0 L 173.5 0 L 174 0 L 174.5 0 L 175 0 L 175.5 0 L 176 0 L 176.5 0 L 177 0 L 177.5 0 L 178 0 L 178.5 0 L 179 0 L 179.5 0 L 180 0 L 180.5 0 L 181 0 L 181.5 0 L 182 0 L 182.5 0 L 183 0 L 183.5 0 L 184 0 L 184.5 0 L 185 0 L 185.5 0 L 186 0 L 186.5 0 L 187 0 L 187.5 0 L 188 0 L 188.5 0 L 189 0 L 189.5 0 L 190 0 L 190.5 0 L 191 0 L 191.5 0 L 192 0 L 192.5 0 L 193 0 L 193.5 0 L 194 0 L 194.5 0 L 195 0 L 195.5 0 L 196 0 L 196.5 0 L 197 0 L 197.5 0 L 198 0 L 198.5 0 L 199 0 L 199.5 0 L 200 0 L 200.5 0 L 201 0 L 201.5 0 L 202 0 L 202.5 0 L 203 0 L 203.5 0 L 204 0 L 204.5 0 L 205 0 L 205.5 0 L 206 0 L 206.5 0 L 207 0 L 207.5 0 L 208 0 L 208.5 0 L 209 0 L 209.5 0 L 210 0 L 210.5 0 L 211 0 L 211.5 0 L 212 0 L 212.5 0 L 213 0 L 213.5 0 L 214 0 L 214.5 0 L 215 0 L 215.5 0 L 216 0 L 216.5 0 L 217 0 L 217.5 0 L 218 0 L 218.5 0 L 219 0 L 219.5 0 L 220 0 L 220.5 0 L 221 0 L 221.5 0 L 222 0 L 222.5 0 L 223 0 L 223.5 0 L 224 0 L 224.5 0 L 225 0 L 225.5 0 L 226 0 L 226.5 0 L 227 0 L 227.5 0 L 228 0 L 228.5 0 L 229 0 L 229.5 0 L 230 0 L 230.5 0 L 231 0 L 231.5 0 L 232 0 L 232.5 0 L 233 0 L 233.5 0 L 234 0 L 234.5 0 L 235 0 L 235.5 0 L 236 0 L 236.5 0 L 237 0 L 237.5 0 L 238 0 L 238.5 0 L 239 0 L 239.5 0 L 240 0 L 240.5 0 L 241 0 L 241.5 0 L 242 0 L 242.5 0 L 243 0 L 243.5 0 L 244 0 L 244.5 0 L 245 0 L 245.5 0 L 246 0 L 246.5 0 L 247 0 L 247.5 0 L 248 0 L 248.5 0 L 249 0 L 249.5 0 L 250 0 L 250.5 0 L 251 0 L 251.5 0 L 252 0 L 252.5 0 L 253 0 L 253.5 0 L 254 0 L 254.5 0 L 255 0 L 255.5 0 L 256 0 L 256.5 0 L 257 0 L 257.5 0 L 258 0 L 258.5 0 L 259 0 L 259.5 0 L 260 0 L 260.5 0 L 261 0 L 261.5 0 L 262 0 L 262.5 0 L 263 0 L 263.5 0 L 264 0 L 264.5 0 L 265 0 L 265.5 0 L 266 0 L 266.5 0 L 267 0 L 267.5 0 L 268 0 L 268.5 0 L 269 0 L 269.5 0 L 270 0 L 270.5 0 L 271 0 L 271.5 0 L 272 0 L 272.5 0 L 273 0 L 273.5 0 L 274 0 L 274.5 0 L 275 0 L 275.5 0 L 276 0 L 276.5 0 L 277 0 L 277.5 0 L 278 0 L 278.5 0 L 279 0 L 279.5 0 L 280 0 L 280.5 0 L 281 0 L 281.5 0 L 282 0 L 282.5 0 L 283 0 L 283.5 0 L 284 0 L 284.5 0 L 285 0 L 285.5 0 L 286 0 L 286.5 0 L 287 0 L 287.5 0 L 288 0 L 288.5 0 L 289 0 L 289.5 0 L 290 0 L 290.5 0 L 291 0 L 291.5 0 L 292 0 L 292.5 0 L 293 0 L 293.5 0 L 294 0 L 294.5 0 L 295 0 L 295.5 0 L 296 0 L 296.5 0 L 297 0 L 297.5 0 L 298 0 L 298.5 0 L 299 0 L 299.5 0 L 300 0 L 300.5 0 L 301 0 L 301.5 0 L 302 0 L 302.5 0 L 303 0 L 303.5 0 L 304 0 L 304.5 0 L 305 0 L 305.5 0 L 306 0 L 306.5 0 L 307 0 L 307.5 0 L 308 0 L 308.5 0 L 309 0 L 309.5 0 L 310 0 L 310.5 0 L 311 0 L 311.5 0 L 312 0 L 312.5 0 L 313 0 L 313.5 0 L 314 0 L 314.5 0 L 315 0 L 315.5 0 L 316 0 L 316.5 0 L 317 0 L 317.5 0 L 318 0 L 318.5 0 L 319 0 L 319.5 0 L 320 0 L 320.5 0 L 321 0 L 321.5 0 L 322 0 L 322.5 0 L 323 0 L 323.5 0 L 324 0 L 324.5 0 L 325 0 L 325.5 0 L 326 0 L 326.5 0 L 327 0 L 327.5 0 L 328 0 L 328.5 0 L 329 0 L 329.5 0 L 330 0 L 330.5 0 L 331 0 L 331.5 0 L 332 0 L 332.5 0 L 333 0 L 333.5 0 L 334 0 L 334.5 0 L 335 0 L 335.5 0 L 336 0 L 336.5 0 L 337 0 L 337.5 0 L 338 0 L 338.5 0 L 339 0 L 339.5 0 L 340 0 L 340.5 0 L 341 0 L 341.5 0 L 342 0 L 342.5 0 L 343 0 L 343.5 0 L 344 0 L 344.5 0 L 345 0 L 345.5 0 L 346 0 L 346.5 0 L 347 0 L 347.5 0 L 348 0 L 348.5 0 L 349 0 L 349.5 0 L 350 0 L 350.5 0 L 351 0 L 351.5 0 L 352 0 L 352.5 0 L 353 0 L 353.5 0 L 354 0 L 354.5 0 L 355 0 L 355.5 0 L 356 0 L 356.5 0 L 357 0 L 357.5 0 L 358 0 L 358.5 0 L 359 0 L 359.5 0 L 360 0 L 360.5 0 L 361 0 L 361.5 0 L 362 0 L 362.5 0 L 363 0 L 363.5 0 L 364 0 L 364.5 0 L 365 0 L 365.5 0 L 366 0 L 366.5 0 L 367 0 L 367.5 0 L 368 0 L 368.5 0 L 369 0 L 369.5 0 L 370 0 L 370.5 0 L 371 0 L 371.5 0 L 372 0 L 372.5 0 L 373 0 L 373.5 0 L 374 0 L 374.5 0 L 375 0 L 375.5 0 L 376 0 L 376.5 0 L 377 0 L 377.5 0 L 378 0 L 378.5 0 L 379 0 L 379.5 0 L 380 0 L 380.5 0 L 381 0 L 381.5 0 L 382 0 L 382.5 0 L 383 0 L 383.5 0 L 384 0 L 384.5 0 L 385 0 L 385.5 0 L 386 0 L 386.5 0 L 387 0 L 387.5 0 L 388 0 L 388.5 0 L 389 0 L 389.5 0 L 390 0 L 390.5 0 L 391 0 L 391.5 0 L 392 0 L 392.5 0 L 393 0 L 393.5 0 L 394 0 L 394.5 0 L 395 0 L 395.5 0 L 396 0 L 396.5 0 L 397 0 L 397.5 0 L 398 0 L 398.5 0 L 399 0 L 399.5 0 L 400 0 L 400.5 0 L 401 0 L 401.5 0 L 402 0 L 402.5 0 L 403 0 L 403.5 0 L 404 0 L 404.5 0 L 405 0 L 405.5 0 L 406 0 L 406.5 0 L 407 0 L 407.5 0 L 408 0 L 408.5 0 L 409 0 L 409.5 0 L 410 0 L 410.5 0 L 411 0 L 411.5 0 L 412 0 L 412.5 0 L 413 0 L 413.5 0 L 414 0 L 414.5 0 L 415 0 L 415.5 0 L 416 0 L 416.5 0 L 417 0 L 417.5 0 L 418 0 L 418.5 0 L 419 0 L 419.5 0 L 420 0 L 420.5 0 L 421 0 L 421.5 0 L 422 0 L 422.5 0 L 423 0 L 423.5 0 L 424 0 L 424.5 0 L 425 0 L 425.5 0 L 426 0 L 426.5 0 L 427 0 L 427.5 0 L 428 0 L 428.5 0 L 429 0 L 429.5 0 L 430 0 L 430.5 0 L 431 0 L 431.5 0 L 432 0 L 432.5 0 L 433 0 L 433.5 0 L 434 0 L 434.5 0 L 435 0 L 435.5 0 L 436 0 L 436.5 0 L 437 0 L 437.5 0 L 438 0 L 438.5 0 L 439 0 L 439.5 0 L 440 0 L 440.5 0 L 441 0 L 441.5 0 L 442 0 L 442.5 0 L 443 0 L 443.5 0 L 444 0 L 444.5 0 L 445 0 L 445.5 0 L 446 0 L 446.5 0 L 447 0 L 447.5 0 L 448 0 L 448.5 0 L 449 0 L 449.5 0 L 450 0 L 450.5 0 L 451 0 L 451.5 0 L 452 0 L 452.5 0 L 453 0 L 453.5 0 L 454 0 L 454.5 0 L 455 0 L 455.5 0 L 456 0 L 456.5 0 L 457 0 L 457.5 0 L 458 0 L 458.5 0 L 459 0 L 459.5 0 L 460 0 L 460.5 0 L 461 0 L 461.5 0 L 462 0 L 462.5 0 L 463 0 L 463.5 0 L 464 0 L 464.5 0 L 465 0 L 465.5 0 L 466 0 L 466.5 0 L 467 0 L 467.5 0 L 468 0 L 468.5 0 L 469 0 L 469.5 0 L 470 0 L 470.5 0 L 471 0 L 471.5 0 L 472 0 L 472.5 0 L 473 0 L 473.5 0 L 474 0 L 474.5 0 L 475 0 L 475.5 0 L 476 0 L 476.5 0 L 477 0 L 477.5 0 L 478 0 L 478.5 0 L 479 0 L 479.5 0 L 480 0 L 480.5 0 L 481 0 L 481.5 0 L 482 0 L 482.5 0 L 483 0 L 483.5 0 L 484 0 L 484.5 0 L 485 0 L 485.5 0 L 486 0 L 486.5 0 L 487 0 L 487.5 0 L 488 0 L 488.5 0 L 489 0 L 489.5 0 L 490 0 L 490.5 0 L 491 0 L 491.5 0 L 492 0 L 492.5 0 L 493 0 L 493.5 0 L 494 0 L 494.5 0 L 495 0 L 495.5 0 L 496 0 L 496.5 0 L 497 0 L 497.5 0 L 498 0 L 498.5 0 L 499 0 L 499.5 0 L 500 0 L 500 0 L 500 0.5 L 500 1 L 500 1.5 L 500 2 L 500 2.5 L 500 3 L 500 3.5 L 500 4 L 500 4.5 L 500 5 L 500 5.5 L 500 6 L 500 6.5 L 500 7 L 500 7.5 L 500 8 L 500 8.5 L 500 9 L 500 9.5 L 500 10 L 500 10.5 L 500 11 L 500 11.5 L 500 12 L 500 12.5 L 500 13 L 500 13.5 L 500 14 L 500 14.5 L 500 15 L 500 15.5 L 500 16 L 500 16.5 L 500 17 L 500 17.5 L 500 18 L 500 18.5 L 500 19 L 500 19.5 L 500 20 L 500 20.5 L 500 21 L 500 21.5 L 500 22 L 500 22.5 L 500 23 L 500 23.5 L 500 24 L 500 24.5 L 500 25 L 500 25.5 L 500 26 L 500 26.5 L 500 27 L 500 27.5 L 500 28 L 500 28.5 L 500 29 L 500 29.5 L 500 30 L 500 30.5 L 500 31 L 500 31.5 L 500 32 L 500 32.5 L 500 33 L 500 33.5 L 500 34 L 500 34.5 L 500 35 L 500 35.5 L 500 36 L 500 36.5 L 500 37 L 500 37.5 L 500 38 L 500 38.5 L 500 39 L 500 39.5 L 500 40 L 500 40.5 L 500 41 L 500 41.5 L 500 42 L 500 42.5 L 500 43 L 500 43.5 L 500 44 L 500 44.5 L 500 45 L 500 45.5 L 500 46 L 500 46.5 L 500 47 L 500 47.5 L 500 48 L 500 48.5 L 500 49 L 500 49.5 L 500 50 L 500 50.5 L 500 51 L 500 51.5 L 500 52 L 500 52.5 L 500 53 L 500 53.5 L 500 54 L 500 54.5 L 500 55 L 500 55.5 L 500 56 L 500 56.5 L 500 57 L 500 57.5 L 500 58 L 500 58.5 L 500 59 L 500 59.5 L 500 60 L 500 60.5 L 500 61 L 500 61.5 L 500 62 L 500 62.5 L 500 63 L 500 63.5 L 500 64 L 500 64.5 L 500 65 L 500 65.5 L 500 66 L 500 66.5 L 500 67 L 500 67.5 L 500 68 L 500 68.5 L 500 69 L 500 69.5 L 500 70 L 500 70.5 L 500 71 L 500 71.5 L 500 72 L 500 72.5 L 500 73 L 500 73.5 L 500 74 L 500 74.5 L 500 75 L 500 75.5 L 500 76 L 500 76.5 L 500 77 L 500 77.5 L 500 78 L 500 78.5 L 500 79 L 500 79.5 L 500 80 L 500 80.5 L 500 81 L 500 81.5 L 500 82 L 500 82.5 L 500 83 L 500 83.5 L 500 84 L 500 84.5 L 500 85 L 500 85.5 L 500 86 L 500 86.5 L 500 87 L 500 87.5 L 500 88 L 500 88.5 L 500 89 L 500 89.5 L 500 90 L 500 90.5 L 500 91 L 500 91.5 L 500 92 L 500 92.5 L 500 93 L 500 93.5 L 500 94 L 500 94.5 L 500 95 L 500 95.5 L 500 96 L 500 96.5 L 500 97 L 500 97.5 L 500 98 L 500 98.5 L 500 99 L 500 99.5 L 500 100 L 500 100.5 L 500 101 L 500 101.5 L 500 102 L 500 102.5 L 500 103 L 500 103.5 L 500 104 L 500 104.5 L 500 105 L 500 105.5 L 500 106 L 500 106.5 L 500 107 L 500 107.5 L 500 108 L 500 108.5 L 500 109 L 500 109.5 L 500 110 L 500 110.5 L 500 111 L 500 111.5 L 500 112 L 500 112.5 L 500 113 L 500 113.5 L 500 114 L 500 114.5 L 500 115 L 500 115.5 L 500 116 L 500 116.5 L 500 117 L 500 117.5 L 500 118 L 500 118.5 L 500 119 L 500 119.5 L 500 120 L 500 120.5 L 500 121 L 500 121.5 L 500 122 L 500 122.5 L 500 123 L 500 123.5 L 500 124 L 500 124.5 L 500 125 L 500 125.5 L 500 126 L 500 126.5 L 500 127 L 500 127.5 L 500 128 L 500 128.5 L 500 129 L 500 129.5 L 500 130 L 500 130.5 L 500 131 L 500 131.5 L 500 132 L 500 132.5 L 500 133 L 500 133.5 L 500 134 L 500 134.5 L 500 135 L 500 135.5 L 500 136 L 500 136.5 L 500 137 L 500 137.5 L 500 138 L 500 138.5 L 500 139 L 500 139.5 L 500 140 L 500 140.5 L 500 141 L 500 141.5 L 500 142 L 500 142.5 L 500 143 L 500 143.5 L 500 144 L 500 144.5 L 500 145 L 500 145.5 L 500 146 L 500 146.5 L 500 147 L 500 147.5 L 500 148 L 500 148.5 L 500 149 L 500 149.5 L 500 150 L 500 150.5 L 500 151 L 500 151.5 L 500 152 L 500 152.5 L 500 153 L 500 153.5 L 500 154 L 500 154.5 L 500 155 L 500 155.5 L 500 156 L 500 156.5 L 500 157 L 500 157.5 L 500 158 L 500 158.5 L 500 159 L 500 159.5 L 500 160 L 500 160.5 L 500 161 L 500 161.5 L 500 162 L 500 162.5 L 500 163 L 500 163.5 L 500 164 L 500 164.5 L 500 165 L 500 165.5 L 500 166 L 500 166.5 L 500 167 L 500 167.5 L 500 168 L 500 168.5 L 500 169 L 500 169.5 L 500 170 L 500 170.5 L 500 171 L 500 171.5 L 500 172 L 500 172.5 L 500 173 L 500 173.5 L 500 174 L 500 174.5 L 500 175 L 500 175.5 L 500 176 L 500 176.5 L 500 177 L 500 177.5 L 500 178 L 500 178.5 L 500 179 L 500 179.5 L 500 180 L 500 180.5 L 500 181 L 500 181.5 L 500 182 L 500 182.5 L 500 183 L 500 183.5 L 500 184 L 500 184.5 L 500 185 L 500 185.5 L 500 186 L 500 186.5 L 500 187 L 500 187.5 L 500 188 L 500 188.5 L 500 189 L 500 189.5 L 500 190 L 500 190.5 L 500 191 L 500 191.5 L 500 192 L 500 192.5 L 500 193 L 500 193.5 L 500 194 L 500 194.5 L 500 195 L 500 195.5 L 500 196 L 500 196.5 L 500 197 L 500 197.5 L 500 198 L 500 198.5 L 500 199 L 500 199.5 L 500 200 L 500 200.5 L 500 201 L 500 201.5 L 500 202 L 500 202.5 L 500 203 L 500 203.5 L 500 204 L 500 204.5 L 500 205 L 500 205.5 L 500 206 L 500 206.5 L 500 207 L 500 207.5 L 500 208 L 500 208.5 L 500 209 L 500 209.5 L 500 210 L 500 210.5 L 500 211 L 500 211.5 L 500 212 L 500 212.5 L 500 213 L 500 213.5 L 500 214 L 500 214.5 L 500 215 L 500 215.5 L 500 216 L 500 216.5 L 500 217 L 500 217.5 L 500 218 L 500 218.5 L 500 219 L 500 219.5 L 500 220 L 500 220.5 L 500 221 L 500 221.5 L 500 222 L 500 222.5 L 500 223 L 500 223.5 L 500 224 L 500 224.5 L 500 225 L 500 225.5 L 500 226 L 500 226.5 L 500 227 L 500 227.5 L 500 228 L 500 228.5 L 500 229 L 500 229.5 L 500 230 L 500 230.5 L 500 231 L 500 231.5 L 500 232 L 500 232.5 L 500 233 L 500 233.5 L 500 234 L 500 234.5 L 500 235 L 500 235.5 L 500 236 L 500 236.5 L 500 237 L 500 237.5 L 500 238 L 500 238.5 L 500 239 L 500 239.5 L 500 240 L 500 240.5 L 500 241 L 500 241.5 L 500 242 L 500 242.5 L 500 243 L 500 243.5 L 500 244 L 500 244.5 L 500 245 L 500 245.5 L 500 246 L 500 246.5 L 500 247 L 500 247.5 L 500 248 L 500 248.5 L 500 249 L 500 249.5 L 500 250 L 500 250.5 L 500 251 L 500 251.5 L 500 252 L 500 252.5 L 500 253 L 500 253.5 L 500 254 L 500 254.5 L 500 255 L 500 255.5 L 500 256 L 500 256.5 L 500 257 L 500 257.5 L 500 258 L 500 258.5 L 500 259 L 500 259.5 L 500 260 L 500 260.5 L 500 261 L 500 261.5 L 500 262 L 500 262.5 L 500 263 L 500 263.5 L 500 264 L 500 264.5 L 500 265 L 500 265.5 L 500 266 L 500 266.5 L 500 267 L 500 267.5 L 500 268 L 500 268.5 L 500 269 L 500 269.5 L 500 270 L 500 270.5 L 500 271 L 500 271.5 L 500 272 L 500 272.5 L 500 273 L 500 273.5 L 500 274 L 500 274.5 L 500 275 L 500 275.5 L 500 276 L 500 276.5 L 500 277 L 500 277.5 L 500 278 L 500 278.5 L 500 279 L 500 279.5 L 500 280 L 500 280.5 L 500 281 L 500 281.5 L 500 282 L 500 282.5 L 500 283 L 500 283.5 L 500 284 L 500 284.5 L 500 285 L 500 285.5 L 500 286 L 500 286.5 L 500 287 L 500 287.5 L 500 288 L 500 288.5 L 500 289 L 500 289.5 L 500 290 L 500 290.5 L 500 291 L 500 291.5 L 500 292 L 500 292.5 L 500 293 L 500 293.5 L 500 294 L 500 294.5 L 500 295 L 500 295.5 L 500 296 L 500 296.5 L 500 297 L 500 297.5 L 500 298 L 500 298.5 L 500 299 L 500 299.5 L 500 300 L 500 300.5 L 500 301 L 500 301.5 L 500 302 L 500 302.5 L 500 303 L 500 303.5 L 500 304 L 500 304.5 L 500 305 L 500 305.5 L 500 306 L 500 306.5 L 500 307 L 500 307.5 L 500 308 L 500 308.5 L 500 309 L 500 309.5 L 500 310 L 500 310.5 L 500 311 L 500 311.5 L 500 312 L 500 312.5 L 500 313 L 500 313.5 L 500 314 L 500 314.5 L 500 315 L 500 315.5 L 500 316 L 500 316.5 L 500 317 L 500 317.5 L 500 318 L 500 318.5 L 500 319 L 500 319.5 L 500 320 L 500 320.5 L 500 321 L 500 321.5 L 500 322 L 500 322.5 L 500 323 L 500 323.5 L 500 324 L 500 324.5 L 500 325 L 500 325.5 L 500 326 L 500 326.5 L 500 327 L 500 327.5 L 500 328 L 500 328.5 L 500 329 L 500 329.5 L 500 330 L 500 330.5 L 500 331 L 500 331.5 L 500 332 L 500 332.5 L 500 333 L 500 333.5 L 500 334 L 500 334.5 L 500 335 L 500 335.5 L 500 336 L 500 336.5 L 500 337 L 500 337.5 L 500 338 L 500 338.5 L 500 339 L 500 339.5 L 500 340 L 500 340.5 L 500 341 L 500 341.5 L 500 342 L 500 342.5 L 500 343 L 500 343.5 L 500 344 L 500 344.5 L 500 345 L 500 345.5 L 500 346 L 500 346.5 L 500 347 L 500 347.5 L 500 348 L 500 348.5 L 500 349 L 500 349.5 L 500 350 L 500 350.5 L 500 351 L 500 351.5 L 500 352 L 500 352.5 L 500 353 L 500 353.5 L 500 354 L 500 354.5 L 500 355 L 500 355.5 L 500 356 L 500 356.5 L 500 357 L 500 357.5 L 500 358 L 500 358.5 L 500 359 L 500 359.5 L 500 360 L 500 360.5 L 500 361 L 500 361.5 L 500 362 L 500 362.5 L 500 363 L 500 363.5 L 500 364 L 500 364.5 L 500 365 L 500 365.5 L 500 366 L 500 366.5 L 500 367 L 500 367.5 L 500 368 L 500 368.5 L 500 369 L 500 369.5 L 500 370 L 500 370.5 L 500 371 L 500 371.5 L 500 372 L 500 372.5 L 500 373 L 500 373.5 L 500 374 L 500 374.5 L 500 375 L 500 375.5 L 500 376 L 500 376.5 L 500 377 L 500 377.5 L 500 378 L 500 378.5 L 500 379 L 500 379.5 L 500 380 L 500 380.5 L 500 381 L 500 381.5 L 500 382 L 500 382.5 L 500 383 L 500 383.5 L 500 384 L 500 384.5 L 500 385 L 500 385.5 L 500 386 L 500 386.5 L 500 387 L 500 387.5 L 500 388 L 500 388.5 L 500 389 L 500 389.5 L 500 390 L 500 390.5 L 500 391 L 500 391.5 L 500 392 L 500 392.5 L 500 393 L 500 393.5 L 500 394 L 500 394.5 L 500 395 L 500 395.5 L 500 396 L 500 396.5 L 500 397 L 500 397.5 L 500 398 L 500 398.5 L 500 399 L 500 399.5 L 500 400 L 500 400.5 L 500 401 L 500 401.5 L 500 402 L 500 402.5 L 500 403 L 500 403.5 L 500 404 L 500 404.5 L 500 405 L 500 405.5 L 500 406 L 500 406.5 L 500 407 L 500 407.5 L 500 408 L 500 408.5 L 500 409 L 500 409.5 L 500 410 L 500 410.5 L 500 411 L 500 411.5 L 500 412 L 500 412.5 L 500 413 L 500 413.5 L 500 414 L 500 414.5 L 500 415 L 500 415.5 L 500 416 L 500 416.5 L 500 417 L 500 417.5 L 500 418 L 500 418.5 L 500 419 L 500 419.5 L 500 420 L 500 420.5 L 500 421 L 500 421.5 L 500 422 L 500 422.5 L 500 423 L 500 423.5 L 500 424 L 500 424.5 L 500 425 L 500 425.5 L 500 426 L 500 426.5 L 500 427 L 500 427.5 L 500 428 L 500 428.5 L 500 429 L 500 429.5 L 500 430 L 500 430.5 L 500 431 L 500 431.5 L 500 432 L 500 432.5 L 500 433 L 500 433.5 L 500 434 L 500 434.5 L 500 435 L 500 435.5 L 500 436 L 500 436.5 L 500 437 L 500 437.5 L 500 438 L 500 438.5 L 500 439 L 500 439.5 L 500 440 L 500 440.5 L 500 441 L 500 441.5 L 500 442 L 500 442.5 L 500 443 L 500 443.5 L 500 444 L 500 444.5 L 500 445 L 500 445.5 L 500 446 L 500 446.5 L 500 447 L 500 447.5 L 500 448 L 500 448.5 L 500 449 L 500 449.5 L 500 450 L 500 450.5 L 500 451 L 500 451.5 L 500 452 L 500 452.5 L 500 453 L 500 453.5 L 500 454 L 500 454.5 L 500 455 L 500 455.5 L 500 456 L 500 456.5 L 500 457 L 500 457.5 L 500 458 L 500 458.5 L 500 459 L 500 459.5 L 500 460 L 500 460.5 L 500 461 L 500 461.5 L 500 462 L 500 462.5 L 500 463 L 500 463.5 L 500 464 L 500 464.5 L 500 465 L 500 465.5 L 500 466 L 500 466.5 L 500 467 L 500 467.5 L 500 468 L 500 468.5 L 500 469 L 500 469.5 L 500 470 L 500 470.5 L 500 471 L 500 471.5 L 500 472 L 500 472.5 L 500 473 L 500 473.5 L 500 474 L 500 474.5 L 500 475 L 500 475.5 L 500 476 L 500 476.5 L 500 477 L 500 477.5 L 500 478 L 500 478.5 L 500 479 L 500 479.5 L 500 480 L 500 480.5 L 500 481 L 500 481.5 L 500 482 L 500 482.5 L 500 483 L 500 483.5 L 500 484 L 500 484.5 L 500 485 L 500 485.5 L 500 486 L 500 486.5 L 500 487 L 500 487.5 L 500 488 L 500 488.5 L 500 489 L 500 489.5 L 500 490 L 500 490.5 L 500 491 L 500 491.5 L 500 492 L 500 492.5 L 500 493 L 500 493.5 L 500 494 L 500 494.5 L 500 495 L 500 495.5 L 500 496 L 500 496.5 L 500 497 L 500 497.5 L 500 498 L 500 498.5 L 500 499 L 500 499.5 L 500 500 L 500 500 L 499.5 500 L 499 500 L 498.5 500 L 498 500 L 497.5 500 L 497 500 L 496.5 500 L 496 500 L 495.5 500 L 495 500 L 494.5 500 L 494 500 L 493.5 500 L 493 500 L 492.5 500 L 492 500 L 491.5 500 L 491 500 L 490.5 500 L 490 500 L 489.5 500 L 489 500 L 488.5 500 L 488 500 L 487.5 500 L 487 500 L 486.5 500 L 486 500 L 485.5 500 L 485 500 L 484.5 500 L 484 500 L 483.5 500 L 483 500 L 482.5 500 L 482 500 L 481.5 500 L 481 500 L 480.5 500 L 480 500 L 479.5 500 L 479 500 L 478.5 500 L 478 500 L 477.5 500 L 477 500 L 476.5 500 L 476 500 L 475.5 500 L 475 500 L 474.5 500 L 474 500 L 473.5 500 L 473 500 L 472.5 500 L 472 500 L 471.5 500 L 471 500 L 470.5 500 L 470 500 L 469.5 500 L 469 500 L 468.5 500 L 468 500 L 467.5 500 L 467 500 L 466.5 500 L 466 500 L 465.5 500 L 465 500 L 464.5 500 L 464 500 L 463.5 500 L 463 500 L 462.5 500 L 462 500 L 461.5 500 L 461 500 L 460.5 500 L 460 500 L 459.5 500 L 459 500 L 458.5 500 L 458 500 L 457.5 500 L 457 500 L 456.5 500 L 456 500 L 455.5 500 L 455 500 L 454.5 500 L 454 500 L 453.5 500 L 453 500 L 452.5 500 L 452 500 L 451.5 500 L 451 500 L 450.5 500 L 450 500 L 449.5 500 L 449 500 L 448.5 500 L 448 500 L 447.5 500 L 447 500 L 446.5 500 L 446 500 L 445.5 500 L 445 500 L 444.5 500 L 444 500 L 443.5 500 L 443 500 L 442.5 500 L 442 500 L 441.5 500 L 441 500 L 440.5 500 L 440 500 L 439.5 500 L 439 500 L 438.5 500 L 438 500 L 437.5 500 L 437 500 L 436.5 500 L 436 500 L 435.5 500 L 435 500 L 434.5 500 L 434 500 L 433.5 500 L 433 500 L 432.5 500 L 432 500 L 431.5 500 L 431 500 L 430.5 500 L 430 500 L 429.5 500 L 429 500 L 428.5 500 L 428 500 L 427.5 500 L 427 500 L 426.5 500 L 426 500 L 425.5 500 L 425 500 L 424.5 500 L 424 500 L 423.5 500 L 423 500 L 422.5 500 L 422 500 L 421.5 500 L 421 500 L 420.5 500 L 420 500 L 419.5 500 L 419 500 L 418.5 500 L 418 500 L 417.5 500 L 417 500 L 416.5 500 L 416 500 L 415.5 500 L 415 500 L 414.5 500 L 414 500 L 413.5 500 L 413 500 L 412.5 500 L 412 500 L 411.5 500 L 411 500 L 410.5 500 L 410 500 L 409.5 500 L 409 500 L 408.5 500 L 408 500 L 407.5 500 L 407 500 L 406.5 500 L 406 500 L 405.5 500 L 405 500 L 404.5 500 L 404 500 L 403.5 500 L 403 500 L 402.5 500 L 402 500 L 401.5 500 L 401 500 L 400.5 500 L 400 500 L 399.5 500 L 399 500 L 398.5 500 L 398 500 L 397.5 500 L 397 500 L 396.5 500 L 396 500 L 395.5 500 L 395 500 L 394.5 500 L 394 500 L 393.5 500 L 393 500 L 392.5 500 L 392 500 L 391.5 500 L 391 500 L 390.5 500 L 390 500 L 389.5 500 L 389 500 L 388.5 500 L 388 500 L 387.5 500 L 387 500 L 386.5 500 L 386 500 L 385.5 500 L 385 500 L 384.5 500 L 384 500 L 383.5 500 L 383 500 L 382.5 500 L 382 500 L 381.5 500 L 381 500 L 380.5 500 L 380 500 L 379.5 500 L 379 500 L 378.5 500 L 378 500 L 377.5 500 L 377 500 L 376.5 500 L 376 500 L 375.5 500 L 375 500 L 374.5 500 L 374 500 L 373.5 500 L 373 500 L 372.5 500 L 372 500 L 371.5 500 L 371 500 L 370.5 500 L 370 500 L 369.5 500 L 369 500 L 368.5 500 L 368 500 L 367.5 500 L 367 500 L 366.5 500 L 366 500 L 365.5 500 L 365 500 L 364.5 500 L 364 500 L 363.5 500 L 363 500 L 362.5 500 L 362 500 L 361.5 500 L 361 500 L 360.5 500 L 360 500 L 359.5 500 L 359 500 L 358.5 500 L 358 500 L 357.5 500 L 357 500 L 356.5 500 L 356 500 L 355.5 500 L 355 500 L 354.5 500 L 354 500 L 353.5 500 L 353 500 L 352.5 500 L 352 500 L 351.5 500 L 351 500 L 350.5 500 L 350 500 L 349.5 500 L 349 500 L 348.5 500 L 348 500 L 347.5 500 L 347 500 L 346.5 500 L 346 500 L 345.5 500 L 345 500 L 344.5 500 L 344 500 L 343.5 500 L 343 500 L 342.5 500 L 342 500 L 341.5 500 L 341 500 L 340.5 500 L 340 500 L 339.5 500 L 339 500 L 338.5 500 L 338 500 L 337.5 500 L 337 500 L 336.5 500 L 336 500 L 335.5 500 L 335 500 L 334.5 500 L 334 500 L 333.5 500 L 333 500 L 332.5 500 L 332 500 L 331.5 500 L 331 500 L 330.5 500 L 330 500 L 329.5 500 L 329 500 L 328.5 500 L 328 500 L 327.5 500 L 327 500 L 326.5 500 L 326 500 L 325.5 500 L 325 500 L 324.5 500 L 324 500 L 323.5 500 L 323 500 L 322.5 500 L 322 500 L 321.5 500 L 321 500 L 320.5 500 L 320 500 L 319.5 500 L 319 500 L 318.5 500 L 318 500 L 317.5 500 L 317 500 L 316.5 500 L 316 500 L 315.5 500 L 315 500 L 314.5 500 L 314 500 L 313.5 500 L 313 500 L 312.5 500 L 312 500 L 311.5 500 L 311 500 L 310.5 500 L 310 500 L 309.5 500 L 309 500 L 308.5 500 L 308 500 L 307.5 500 L 307 500 L 306.5 500 L 306 500 L 305.5 500 L 305 500 L 304.5 500 L 304 500 L 303.5 500 L 303 500 L 302.5 500 L 302 500 L 301.5 500 L 301 500 L 300.5 500 L 300 500 L 299.5 500 L 299 500 L 298.5 500 L 298 500 L 297.5 500 L 297 500 L 296.5 500 L 296 500 L 295.5 500 L 295 500 L 294.5 500 L 294 500 L 293.5 500 L 293 500 L 292.5 500 L 292 500 L 291.5 500 L 291 500 L 290.5 500 L 290 500 L 289.5 500 L 289 500 L 288.5 500 L 288 500 L 287.5 500 L 287 500 L 286.5 500 L 286 500 L 285.5 500 L 285 500 L 284.5 500 L 284 500 L 283.5 500 L 283 500 L 282.5 500 L 282 500 L 281.5 500 L 281 500 L 280.5 500 L 280 500 L 279.5 500 L 279 500 L 278.5 500 L 278 500 L 277.5 500 L 277 500 L 276.5 500 L 276 500 L 275.5 500 L 275 500 L 274.5 500 L 274 500 L 273.5 500 L 273 500 L 272.5 500 L 272 500 L 271.5 500 L 271 500 L 270.5 500 L 270 500 L 269.5 500 L 269 500 L 268.5 500 L 268 500 L 267.5 500 L 267 500 L 266.5 500 L 266 500 L 265.5 500 L 265 500 L 264.5 500 L 264 500 L 263.5 500 L 263 500 L 262.5 500 L 262 500 L 261.5 500 L 261 500 L 260.5 500 L 260 500 L 259.5 500 L 259 500 L 258.5 500 L 258 500 L 257.5 500 L 257 500 L 256.5 500 L 256 500 L 255.5 500 L 255 500 L 254.5 500 L 254 500 L 253.5 500 L 253 500 L 252.5 500 L 252 500 L 251.5 500 L 251 500 L 250.5 500 L 250 500 L 249.5 500 L 249 500 L 248.5 500 L 248 500 L 247.5 500 L 247 500 L 246.5 500 L 246 500 L 245.5 500 L 245 500 L 244.5 500 L 244 500 L 243.5 500 L 243 500 L 242.5 500 L 242 500 L 241.5 500 L 241 500 L 240.5 500 L 240 500 L 239.5 500 L 239 500 L 238.5 500 L 238 500 L 237.5 500 L 237 500 L 236.5 500 L 236 500 L 235.5 500 L 235 500 L 234.5 500 L 234 500 L 233.5 500 L 233 500 L 232.5 500 L 232 500 L 231.5 500 L 231 500 L 230.5 500 L 230 500 L 229.5 500 L 229 500 L 228.5 500 L 228 500 L 227.5 500 L 227 500 L 226.5 500 L 226 500 L 225.5 500 L 225 500 L 224.5 500 L 224 500 L 223.5 500 L 223 500 L 222.5 500 L 222 500 L 221.5 500 L 221 500 L 220.5 500 L 220 500 L 219.5 500 L 219 500 L 218.5 500 L 218 500 L 217.5 500 L 217 500 L 216.5 500 L 216 500 L 215.5 500 L 215 500 L 214.5 500 L 214 500 L 213.5 500 L 213 500 L 212.5 500 L 212 500 L 211.5 500 L 211 500 L 210.5 500 L 210 500 L 209.5 500 L 209 500 L 208.5 500 L 208 500 L 207.5 500 L 207 500 L 206.5 500 L 206 500 L 205.5 500 L 205 500 L 204.5 500 L 204 500 L 203.5 500 L 203 500 L 202.5 500 L 202 500 L 201.5 500 L 201 500 L 200.5 500 L 200 500 L 199.5 500 L 199 500 L 198.5 500 L 198 500 L 197.5 500 L 197 500 L 196.5 500 L 196 500 L 195.5 500 L 195 500 L 194.5 500 L 194 500 L 193.5 500 L 193 500 L 192.5 500 L 192 500 L 191.5 500 L 191 500 L 190.5 500 L 190 500 L 189.5 500 L 189 500 L 188.5 500 L 188 500 L 187.5 500 L 187 500 L 186.5 500 L 186 500 L 185.5 500 L 185 500 L 184.5 500 L 184 500 L 183.5 500 L 183 500 L 182.5 500 L 182 500 L 181.5 500 L 181 500 L 180.5 500 L 180 500 L 179.5 500 L 179 500 L 178.5 500 L 178 500 L 177.5 500 L 177 500 L 176.5 500 L 176 500 L 175.5 500 L 175 500 L 174.5 500 L 174 500 L 173.5 500 L 173 500 L 172.5 500 L 172 500 L 171.5 500 L 171 500 L 170.5 500 L 170 500 L 169.5 500 L 169 500 L 168.5 500 L 168 500 L 167.5 500 L 167 500 L 166.5 500 L 166 500 L 165.5 500 L 165 500 L 164.5 500 L 164 500 L 163.5 500 L 163 500 L 162.5 500 L 162 500 L 161.5 500 L 161 500 L 160.5 500 L 160 500 L 159.5 500 L 159 500 L 158.5 500 L 158 500 L 157.5 500 L 157 500 L 156.5 500 L 156 500 L 155.5 500 L 155 500 L 154.5 500 L 154 500 L 153.5 500 L 153 500 L 152.5 500 L 152 500 L 151.5 500 L 151 500 L 150.5 500 L 150 500 L 149.5 500 L 149 500 L 148.5 500 L 148 500 L 147.5 500 L 147 500 L 146.5 500 L 146 500 L 145.5 500 L 145 500 L 144.5 500 L 144 500 L 143.5 500 L 143 500 L 142.5 500 L 142 500 L 141.5 500 L 141 500 L 140.5 500 L 140 500 L 139.5 500 L 139 500 L 138.5 500 L 138 500 L 137.5 500 L 137 500 L 136.5 500 L 136 500 L 135.5 500 L 135 500 L 134.5 500 L 134 500 L 133.5 500 L 133 500 L 132.5 500 L 132 500 L 131.5 500 L 131 500 L 130.5 500 L 130 500 L 129.5 500 L 129 500 L 128.5 500 L 128 500 L 127.5 500 L 127 500 L 126.5 500 L 126 500 L 125.5 500 L 125 500 L 124.5 500 L 124 500 L 123.5 500 L 123 500 L 122.5 500 L 122 500 L 121.5 500 L 121 500 L 120.5 500 L 120 500 L 119.5 500 L 119 500 L 118.5 500 L 118 500 L 117.5 500 L 117 500 L 116.5 500 L 116 500 L 115.5 500 L 115 500 L 114.5 500 L 114 500 L 113.5 500 L 113 500 L 112.5 500 L 112 500 L 111.5 500 L 111 500 L 110.5 500 L 110 500 L 109.5 500 L 109 500 L 108.5 500 L 108 500 L 107.5 500 L 107 500 L 106.5 500 L 106 500 L 105.5 500 L 105 500 L 104.5 500 L 104 500 L 103.5 500 L 103 500 L 102.5 500 L 102 500 L 101.5 500 L 101 500 L 100.5 500 L 100 500 L 99.5 500 L 99 500 L 98.5 500 L 98 500 L 97.5 500 L 97 500 L 96.5 500 L 96 500 L 95.5 500 L 95 500 L 94.5 500 L 94 500 L 93.5 500 L 93 500 L 92.5 500 L 92 500 L 91.5 500 L 91 500 L 90.5 500 L 90 500 L 89.5 500 L 89 500 L 88.5 500 L 88 500 L 87.5 500 L 87 500 L 86.5 500 L 86 500 L 85.5 500 L 85 500 L 84.5 500 L 84 500 L 83.5 500 L 83 500 L 82.5 500 L 82 500 L 81.5 500 L 81 500 L 80.5 500 L 80 500 L 79.5 500 L 79 500 L 78.5 500 L 78 500 L 77.5 500 L 77 500 L 76.5 500 L 76 500 L 75.5 500 L 75 500 L 74.5 500 L 74 500 L 73.5 500 L 73 500 L 72.5 500 L 72 500 L 71.5 500 L 71 500 L 70.5 500 L 70 500 L 69.5 500 L 69 500 L 68.5 500 L 68 500 L 67.5 500 L 67 500 L 66.5 500 L 66 500 L 65.5 500 L 65 500 L 64.5 500 L 64 500 L 63.5 500 L 63 500 L 62.5 500 L 62 500 L 61.5 500 L 61 500 L 60.5 500 L 60 500 L 59.5 500 L 59 500 L 58.5 500 L 58 500 L 57.5 500 L 57 500 L 56.5 500 L 56 500 L 55.5 500 L 55 500 L 54.5 500 L 54 500 L 53.5 500 L 53 500 L 52.5 500 L 52 500 L 51.5 500 L 51 500 L 50.5 500 L 50 500 L 49.5 500 L 49 500 L 48.5 500 L 48 500 L 47.5 500 L 47 500 L 46.5 500 L 46 500 L 45.5 500 L 45 500 L 44.5 500 L 44 500 L 43.5 500 L 43 500 L 42.5 500 L 42 500 L 41.5 500 L 41 500 L 40.5 500 L 40 500 L 39.5 500 L 39 500 L 38.5 500 L 38 500 L 37.5 500 L 37 500 L 36.5 500 L 36 500 L 35.5 500 L 35 500 L 34.5 500 L 34 500 L 33.5 500 L 33 500 L 32.5 500 L 32 500 L 31.5 500 L 31 500 L 30.5 500 L 30 500 L 29.5 500 L 29 500 L 28.5 500 L 28 500 L 27.5 500 L 27 500 L 26.5 500 L 26 500 L 25.5 500 L 25 500 L 24.5 500 L 24 500 L 23.5 500 L 23 500 L 22.5 500 L 22 500 L 21.5 500 L 21 500 L 20.5 500 L 20 500 L 19.5 500 L 19 500 L 18.5 500 L 18 500 L 17.5 500 L 17 500 L 16.5 500 L 16 500 L 15.5 500 L 15 500 L 14.5 500 L 14 500 L 13.5 500 L 13 500 L 12.5 500 L 12 500 L 11.5 500 L 11 500 L 10.5 500 L 10 500 L 9.5 500 L 9 500 L 8.5 500 L 8 500 L 7.5 500 L 7 500 L 6.5 500 L 6 500 L 5.5 500 L 5 500 L 4.5 500 L 4 500 L 3.5 500 L 3 500 L 2.5 500 L 2 500 L 1.5 500 L 1 500 L 0.5 500 L 0 500 L 0 500 L 0 499.5 L 0 499 L 0 498.5 L 0 498 L 0 497.5 L 0 497 L 0 496.5 L 0 496 L 0 495.5 L 0 495 L 0 494.5 L 0 494 L 0 493.5 L 0 493 L 0 492.5 L 0 492 L 0 491.5 L 0 491 L 0 490.5 L 0 490 L 0 489.5 L 0 489 L 0 488.5 L 0 488 L 0 487.5 L 0 487 L 0 486.5 L 0 486 L 0 485.5 L 0 485 L 0 484.5 L 0 484 L 0 483.5 L 0 483 L 0 482.5 L 0 482 L 0 481.5 L 0 481 L 0 480.5 L 0 480 L 0 479.5 L 0 479 L 0 478.5 L 0 478 L 0 477.5 L 0 477 L 0 476.5 L 0 476 L 0 475.5 L 0 475 L 0 474.5 L 0 474 L 0 473.5 L 0 473 L 0 472.5 L 0 472 L 0 471.5 L 0 471 L 0 470.5 L 0 470 L 0 469.5 L 0 469 L 0 468.5 L 0 468 L 0 467.5 L 0 467 L 0 466.5 L 0 466 L 0 465.5 L 0 465 L 0 464.5 L 0 464 L 0 463.5 L 0 463 L 0 462.5 L 0 462 L 0 461.5 L 0 461 L 0 460.5 L 0 460 L 0 459.5 L 0 459 L 0 458.5 L 0 458 L 0 457.5 L 0 457 L 0 456.5 L 0 456 L 0 455.5 L 0 455 L 0 454.5 L 0 454 L 0 453.5 L 0 453 L 0 452.5 L 0 452 L 0 451.5 L 0 451 L 0 450.5 L 0 450 L 0 449.5 L 0 449 L 0 448.5 L 0 448 L 0 447.5 L 0 447 L 0 446.5 L 0 446 L 0 445.5 L 0 445 L 0 444.5 L 0 444 L 0 443.5 L 0 443 L 0 442.5 L 0 442 L 0 441.5 L 0 441 L 0 440.5 L 0 440 L 0 439.5 L 0 439 L 0 438.5 L 0 438 L 0 437.5 L 0 437 L 0 436.5 L 0 436 L 0 435.5 L 0 435 L 0 434.5 L 0 434 L 0 433.5 L 0 433 L 0 432.5 L 0 432 L 0 431.5 L 0 431 L 0 430.5 L 0 430 L 0 429.5 L 0 429 L 0 428.5 L 0 428 L 0 427.5 L 0 427 L 0 426.5 L 0 426 L 0 425.5 L 0 425 L 0 424.5 L 0 424 L 0 423.5 L 0 423 L 0 422.5 L 0 422 L 0 421.5 L 0 421 L 0 420.5 L 0 420 L 0 419.5 L 0 419 L 0 418.5 L 0 418 L 0 417.5 L 0 417 L 0 416.5 L 0 416 L 0 415.5 L 0 415 L 0 414.5 L 0 414 L 0 413.5 L 0 413 L 0 412.5 L 0 412 L 0 411.5 L 0 411 L 0 410.5 L 0 410 L 0 409.5 L 0 409 L 0 408.5 L 0 408 L 0 407.5 L 0 407 L 0 406.5 L 0 406 L 0 405.5 L 0 405 L 0 404.5 L 0 404 L 0 403.5 L 0 403 L 0 402.5 L 0 402 L 0 401.5 L 0 401 L 0 400.5 L 0 400 L 0 399.5 L 0 399 L 0 398.5 L 0 398 L 0 397.5 L 0 397 L 0 396.5 L 0 396 L 0 395.5 L 0 395 L 0 394.5 L 0 394 L 0 393.5 L 0 393 L 0 392.5 L 0 392 L 0 391.5 L 0 391 L 0 390.5 L 0 390 L 0 389.5 L 0 389 L 0 388.5 L 0 388 L 0 387.5 L 0 387 L 0 386.5 L 0 386 L 0 385.5 L 0 385 L 0 384.5 L 0 384 L 0 383.5 L 0 383 L 0 382.5 L 0 382 L 0 381.5 L 0 381 L 0 380.5 L 0 380 L 0 379.5 L 0 379 L 0 378.5 L 0 378 L 0 377.5 L 0 377 L 0 376.5 L 0 376 L 0 375.5 L 0 375 L 0 374.5 L 0 374 L 0 373.5 L 0 373 L 0 372.5 L 0 372 L 0 371.5 L 0 371 L 0 370.5 L 0 370 L 0 369.5 L 0 369 L 0 368.5 L 0 368 L 0 367.5 L 0 367 L 0 366.5 L 0 366 L 0 365.5 L 0 365 L 0 364.5 L 0 364 L 0 363.5 L 0 363 L 0 362.5 L 0 362 L 0 361.5 L 0 361 L 0 360.5 L 0 360 L 0 359.5 L 0 359 L 0 358.5 L 0 358 L 0 357.5 L 0 357 L 0 356.5 L 0 356 L 0 355.5 L 0 355 L 0 354.5 L 0 354 L 0 353.5 L 0 353 L 0 352.5 L 0 352 L 0 351.5 L 0 351 L 0 350.5 L 0 350 L 0 349.5 L 0 349 L 0 348.5 L 0 348 L 0 347.5 L 0 347 L 0 346.5 L 0 346 L 0 345.5 L 0 345 L 0 344.5 L 0 344 L 0 343.5 L 0 343 L 0 342.5 L 0 342 L 0 341.5 L 0 341 L 0 340.5 L 0 340 L 0 339.5 L 0 339 L 0 338.5 L 0 338 L 0 337.5 L 0 337 L 0 336.5 L 0 336 L 0 335.5 L 0 335 L 0 334.5 L 0 334 L 0 333.5 L 0 333 L 0 332.5 L 0 332 L 0 331.5 L 0 331 L 0 330.5 L 0 330 L 0 329.5 L 0 329 L 0 328.5 L 0 328 L 0 327.5 L 0 327 L 0 326.5 L 0 326 L 0 325.5 L 0 325 L 0 324.5 L 0 324 L 0 323.5 L 0 323 L 0 322.5 L 0 322 L 0 321.5 L 0 321 L 0 320.5 L 0 320 L 0 319.5 L 0 319 L 0 318.5 L 0 318 L 0 317.5 L 0 317 L 0 316.5 L 0 316 L 0 315.5 L 0 315 L 0 314.5 L 0 314 L 0 313.5 L 0 313 L 0 312.5 L 0 312 L 0 311.5 L 0 311 L 0 310.5 L 0 310 L 0 309.5 L 0 309 L 0 308.5 L 0 308 L 0 307.5 L 0 307 L 0 306.5 L 0 306 L 0 305.5 L 0 305 L 0 304.5 L 0 304 L 0 303.5 L 0 303 L 0 302.5 L 0 302 L 0 301.5 L 0 301 L 0 300.5 L 0 300 L 0 299.5 L 0 299 L 0 298.5 L 0 298 L 0 297.5 L 0 297 L 0 296.5 L 0 296 L 0 295.5 L 0 295 L 0 294.5 L 0 294 L 0 293.5 L 0 293 L 0 292.5 L 0 292 L 0 291.5 L 0 291 L 0 290.5 L 0 290 L 0 289.5 L 0 289 L 0 288.5 L 0 288 L 0 287.5 L 0 287 L 0 286.5 L 0 286 L 0 285.5 L 0 285 L 0 284.5 L 0 284 L 0 283.5 L 0 283 L 0 282.5 L 0 282 L 0 281.5 L 0 281 L 0 280.5 L 0 280 L 0 279.5 L 0 279 L 0 278.5 L 0 278 L 0 277.5 L 0 277 L 0 276.5 L 0 276 L 0 275.5 L 0 275 L 0 274.5 L 0 274 L 0 273.5 L 0 273 L 0 272.5 L 0 272 L 0 271.5 L 0 271 L 0 270.5 L 0 270 L 0 269.5 L 0 269 L 0 268.5 L 0 268 L 0 267.5 L 0 267 L 0 266.5 L 0 266 L 0 265.5 L 0 265 L 0 264.5 L 0 264 L 0 263.5 L 0 263 L 0 262.5 L 0 262 L 0 261.5 L 0 261 L 0 260.5 L 0 260 L 0 259.5 L 0 259 L 0 258.5 L 0 258 L 0 257.5 L 0 257 L 0 256.5 L 0 256 L 0 255.5 L 0 255 L 0 254.5 L 0 254 L 0 253.5 L 0 253 L 0 252.5 L 0 252 L 0 251.5 L 0 251 L 0 250.5 L 0 250 L 0 249.5 L 0 249 L 0 248.5 L 0 248 L 0 247.5 L 0 247 L 0 246.5 L 0 246 L 0 245.5 L 0 245 L 0 244.5 L 0 244 L 0 243.5 L 0 243 L 0 242.5 L 0 242 L 0 241.5 L 0 241 L 0 240.5 L 0 240 L 0 239.5 L 0 239 L 0 238.5 L 0 238 L 0 237.5 L 0 237 L 0 236.5 L 0 236 L 0 235.5 L 0 235 L 0 234.5 L 0 234 L 0 233.5 L 0 233 L 0 232.5 L 0 232 L 0 231.5 L 0 231 L 0 230.5 L 0 230 L 0 229.5 L 0 229 L 0 228.5 L 0 228 L 0 227.5 L 0 227 L 0 226.5 L 0 226 L 0 225.5 L 0 225 L 0 224.5 L 0 224 L 0 223.5 L 0 223 L 0 222.5 L 0 222 L 0 221.5 L 0 221 L 0 220.5 L 0 220 L 0 219.5 L 0 219 L 0 218.5 L 0 218 L 0 217.5 L 0 217 L 0 216.5 L 0 216 L 0 215.5 L 0 215 L 0 214.5 L 0 214 L 0 213.5 L 0 213 L 0 212.5 L 0 212 L 0 211.5 L 0 211 L 0 210.5 L 0 210 L 0 209.5 L 0 209 L 0 208.5 L 0 208 L 0 207.5 L 0 207 L 0 206.5 L 0 206 L 0 205.5 L 0 205 L 0 204.5 L 0 204 L 0 203.5 L 0 203 L 0 202.5 L 0 202 L 0 201.5 L 0 201 L 0 200.5 L 0 200 L 0 199.5 L 0 199 L 0 198.5 L 0 198 L 0 197.5 L 0 197 L 0 196.5 L 0 196 L 0 195.5 L 0 195 L 0 194.5 L 0 194 L 0 193.5 L 0 193 L 0 192.5 L 0 192 L 0 191.5 L 0 191 L 0 190.5 L 0 190 L 0 189.5 L 0 189 L 0 188.5 L 0 188 L 0 187.5 L 0 187 L 0 186.5 L 0 186 L 0 185.5 L 0 185 L 0 184.5 L 0 184 L 0 183.5 L 0 183 L 0 182.5 L 0 182 L 0 181.5 L 0 181 L 0 180.5 L 0 180 L 0 179.5 L 0 179 L 0 178.5 L 0 178 L 0 177.5 L 0 177 L 0 176.5 L 0 176 L 0 175.5 L 0 175 L 0 174.5 L 0 174 L 0 173.5 L 0 173 L 0 172.5 L 0 172 L 0 171.5 L 0 171 L 0 170.5 L 0 170 L 0 169.5 L 0 169 L 0 168.5 L 0 168 L 0 167.5 L 0 167 L 0 166.5 L 0 166 L 0 165.5 L 0 165 L 0 164.5 L 0 164 L 0 163.5 L 0 163 L 0 162.5 L 0 162 L 0 161.5 L 0 161 L 0 160.5 L 0 160 L 0 159.5 L 0 159 L 0 158.5 L 0 158 L 0 157.5 L 0 157 L 0 156.5 L 0 156 L 0 155.5 L 0 155 L 0 154.5 L 0 154 L 0 153.5 L 0 153 L 0 152.5 L 0 152 L 0 151.5 L 0 151 L 0 150.5 L 0 150 L 0 149.5 L 0 149 L 0 148.5 L 0 148 L 0 147.5 L 0 147 L 0 146.5 L 0 146 L 0 145.5 L 0 145 L 0 144.5 L 0 144 L 0 143.5 L 0 143 L 0 142.5 L 0 142 L 0 141.5 L 0 141 L 0 140.5 L 0 140 L 0 139.5 L 0 139 L 0 138.5 L 0 138 L 0 137.5 L 0 137 L 0 136.5 L 0 136 L 0 135.5 L 0 135 L 0 134.5 L 0 134 L 0 133.5 L 0 133 L 0 132.5 L 0 132 L 0 131.5 L 0 131 L 0 130.5 L 0 130 L 0 129.5 L 0 129 L 0 128.5 L 0 128 L 0 127.5 L 0 127 L 0 126.5 L 0 126 L 0 125.5 L 0 125 L 0 124.5 L 0 124 L 0 123.5 L 0 123 L 0 122.5 L 0 122 L 0 121.5 L 0 121 L 0 120.5 L 0 120 L 0 119.5 L 0 119 L 0 118.5 L 0 118 L 0 117.5 L 0 117 L 0 116.5 L 0 116 L 0 115.5 L 0 115 L 0 114.5 L 0 114 L 0 113.5 L 0 113 L 0 112.5 L 0 112 L 0 111.5 L 0 111 L 0 110.5 L 0 110 L 0 109.5 L 0 109 L 0 108.5 L 0 108 L 0 107.5 L 0 107 L 0 106.5 L 0 106 L 0 105.5 L 0 105 L 0 104.5 L 0 104 L 0 103.5 L 0 103 L 0 102.5 L 0 102 L 0 101.5 L 0 101 L 0 100.5 L 0 100 L 0 99.5 L 0 99 L 0 98.5 L 0 98 L 0 97.5 L 0 97 L 0 96.5 L 0 96 L 0 95.5 L 0 95 L 0 94.5 L 0 94 L 0 93.5 L 0 93 L 0 92.5 L 0 92 L 0 91.5 L 0 91 L 0 90.5 L 0 90 L 0 89.5 L 0 89 L 0 88.5 L 0 88 L 0 87.5 L 0 87 L 0 86.5 L 0 86 L 0 85.5 L 0 85 L 0 84.5 L 0 84 L 0 83.5 L 0 83 L 0 82.5 L 0 82 L 0 81.5 L 0 81 L 0 80.5 L 0 80 L 0 79.5 L 0 79 L 0 78.5 L 0 78 L 0 77.5 L 0 77 L 0 76.5 L 0 76 L 0 75.5 L 0 75 L 0 74.5 L 0 74 L 0 73.5 L 0 73 L 0 72.5 L 0 72 L 0 71.5 L 0 71 L 0 70.5 L 0 70 L 0 69.5 L 0 69 L 0 68.5 L 0 68 L 0 67.5 L 0 67 L 0 66.5 L 0 66 L 0 65.5 L 0 65 L 0 64.5 L 0 64 L 0 63.5 L 0 63 L 0 62.5 L 0 62 L 0 61.5 L 0 61 L 0 60.5 L 0 60 L 0 59.5 L 0 59 L 0 58.5 L 0 58 L 0 57.5 L 0 57 L 0 56.5 L 0 56 L 0 55.5 L 0 55 L 0 54.5 L 0 54 L 0 53.5 L 0 53 L 0 52.5 L 0 52 L 0 51.5 L 0 51 L 0 50.5 L 0 50 L 0 49.5 L 0 49 L 0 48.5 L 0 48 L 0 47.5 L 0 47 L 0 46.5 L 0 46 L 0 45.5 L 0 45 L 0 44.5 L 0 44 L 0 43.5 L 0 43 L 0 42.5 L 0 42 L 0 41.5 L 0 41 L 0 40.5 L 0 40 L 0 39.5 L 0 39 L 0 38.5 L 0 38 L 0 37.5 L 0 37 L 0 36.5 L 0 36 L 0 35.5 L 0 35 L 0 34.5 L 0 34 L 0 33.5 L 0 33 L 0 32.5 L 0 32 L 0 31.5 L 0 31 L 0 30.5 L 0 30 L 0 29.5 L 0 29 L 0 28.5 L 0 28 L 0 27.5 L 0 27 L 0 26.5 L 0 26 L 0 25.5 L 0 25 L 0 24.5 L 0 24 L 0 23.5 L 0 23 L 0 22.5 L 0 22 L 0 21.5 L 0 21 L 0 20.5 L 0 20 L 0 19.5 L 0 19 L 0 18.5 L 0 18 L 0 17.5 L 0 17 L 0 16.5 L 0 16 L 0 15.5 L 0 15 L 0 14.5 L 0 14 L 0 13.5 L 0 13 L 0 12.5 L 0 12 L 0 11.5 L 0 11 L 0 10.5 L 0 10 L 0 9.5 L 0 9 L 0 8.5 L 0 8 L 0 7.5 L 0 7 L 0 6.5 L 0 6 L 0 5.5 L 0 5 L 0 4.5 L 0 4 L 0 3.5 L 0 3 L 0 2.5 L 0 2 L 0 1.5 L 0 1 L 0 0.5 L 0 0 L 0 0"/>
  </g>
</svg>