<?xml version="1.0" encoding="iso-8859-1"?>
<!DOCTYPE svg PUBLIC "-//W3C//DTD SVG 1.1//EN" "http://www.w3.org/Graphics/SVG/1.1/DTD/svg11.dtd">
<svg
        version="1.1"
        xmlns="http://www.w3.org/2000/svg"
>
  <g>
    <path stroke="pink" stroke-width="4"  
        fill="pink"
        fill-opacity="0.5" 
 d="M 60 40 L 60 40 L 59.601334 43.97339 L 58.45993 47.696163 L 56.596527 51.16044 L 54.13362 54.150646 L 51.157055 56.5988 L 47.6924 58.4615 L 43.890953 59.61786 L 39.995926 60 L 36.10105 59.616272 L 32.37397 58.489014 L 28.969292 56.68303 L 25.888931 54.173134 L 23.398928 51.15367 L 21.536934 47.68864 L 20.381346 43.886955 L 20.000004 40.01185 L 20.392366 36.057835 L 21.535513 32.314774 L 23.374598 28.882627 L 25.872147 25.843597 L 28.86632 23.385513 L 32.29666 21.543062 L 36.117043 20.380554 L 39.992226 20.000002 L 43.867702 20.377542 L 47.596577 21.498865 L 51.037506 23.321466 L 54.10267 25.818508 L 56.627876 28.886326 L 58.47387 32.337353 L 59.61244 36.081806 L 60 39.9963"/>
  </g>
</svg>